<?xml version="1.0" encoding="utf-8"?>
<svg viewBox="0 0 447.9 448" width="447.9" height="448" xmlns="http://www.w3.org/2000/svg">
  <path fill="#a1c719" d="M 48 64 L 48 384 C 48 392.8 55.2 400 64 400 L 384 400 C 392.8 400 400 392.8 400 384 L 400 138.5 C 400 134.3 398.3 130.2 395.3 127.2 L 429.2 93.3 C 441.2 105.3 447.9 121.6 447.9 138.6 L 447.9 384 C 447.9 419.3 419.2 448 383.9 448 L 64 448 C 28.7 448 0 419.3 0 384 L 0 64 C 0 28.7 28.7 0 64 0 L 309.5 0 C 326.5 0 342.8 6.7 354.8 18.7 L 429.3 93.2 L 395.4 127.1 L 320.8 52.7 C 320.5 52.4 320.3 52.2 320 51.9 L 320 152 C 320 165.3 309.3 176 296 176 L 104 176 C 90.7 176 80 165.3 80 152 L 80 48 L 64 48 C 55.2 48 48 55.2 48 64 Z M 128 48 L 128 128 L 272 128 L 272 48 L 128 48 Z M 160 288 C 160 238.733 213.333 207.941 256 232.574 C 275.802 244.007 288 265.135 288 288 C 288 337.267 234.667 368.059 192 343.426 C 172.198 331.993 160 310.865 160 288 Z" transform="matrix(1, 0, 0, 1, 0, -7.105427357601002e-15)"/>
</svg>